<?xml version="1.0" encoding="utf-8"?>
<!-- Generator: Adobe Illustrator 23.0.0, SVG Export Plug-In . SVG Version: 6.00 Build 0)  -->
<svg version="1.1" id="Layer_1" xmlns="http://www.w3.org/2000/svg" xmlns:xlink="http://www.w3.org/1999/xlink" x="0px" y="0px"
	 viewBox="0 0 283.5 283.5" style="enable-background:new 0 0 283.5 283.5;" xml:space="preserve">
<style type="text/css">
	.st0{display:none;}
	.st1{display:inline;}
	.st2{fill:#231F20;}
	.st3{display:inline;fill:none;stroke:#231F20;stroke-width:2;stroke-miterlimit:10;}
	.st4{fill:none;}
	.st5{font-family:'Avenir-Light';}
	.st6{font-size:84px;}
	.st7{letter-spacing:-3;}
	.st8{fill:#37C9C9;}
</style>
<g class="st0">
	<title>yIDA white</title>
	<g class="st1">
		<g>
			<path class="st2" d="M186.5,112.5c-5.5,17.7-14.4,34.1-22.2,50.8c-0.8,1.7,1.8,3.3,2.6,1.5c8-17,17-33.5,22.5-51.5
				C190,111.5,187.1,110.7,186.5,112.5L186.5,112.5z"/>
			<path class="st2" d="M186.7,113.7c8.2,17.4,15.4,35.2,21.4,53.5c0.6,1.8,3.5,1,2.9-0.8c-6.1-18.5-13.3-36.6-21.7-54.2
				C188.5,110.4,185.9,111.9,186.7,113.7z"/>
			<path class="st2" d="M173.6,150.7l27-0.3c0.8,0,1.5-0.7,1.5-1.5s-0.7-1.5-1.5-1.5l-27,0.3C171.7,147.7,171.7,150.7,173.6,150.7z"
				/>
		</g>
		<g>
			<path class="st2" d="M135.6,112.9c1.2,17.5,0.8,35.1,1.2,52.7c0,1.6,2.6,2.1,2.9,0.4l0.2-1.4c0.3-1.9-2.6-2.7-2.9-0.8l-0.2,1.4
				l3,0.4c-0.4-17.6,0-35.1-1.2-52.7C138.5,111,135.5,111,135.6,112.9L135.6,112.9z"/>
			<path class="st2" d="M137.1,114.4c12.2,0.2,24.6,10.9,25.3,23.5c0.8,14.2-12.4,22.8-24.4,26.3c-0.8,0.3-1.2,1.2-0.9,1.9
				s1,1.1,1.7,1c13.9-4,28.4-14.5,26.5-30.7c-1.6-13.5-14.8-24.7-28.1-24.9C135.1,111.4,135.1,114.4,137.1,114.4z"/>
		</g>
		<path class="st2" d="M119,114.7c-1.2,18-0.7,36.1,1.3,54c0.2,1.9,3.2,1.9,3,0c-2-17.9-2.5-36-1.3-54
			C122.1,112.8,119.1,112.8,119,114.7z"/>
		<g>
			<path class="st2" d="M72.6,114.8c6.4,11,15,20.6,21.4,31.6c0.4,0.7,1.4,0.9,2.1,0.5s0.9-1.3,0.5-2c-6.4-11-15-20.6-21.4-31.6
				c-0.4-0.7-1.3-1-2.1-0.5C72.5,113.2,72.2,114.1,72.6,114.8z"/>
			<path class="st2" d="M109.5,111.2c-9.2,20.1-17.8,40.4-28.9,59.6c-0.4,0.7-0.2,1.6,0.5,2.1c0.7,0.4,1.6,0.2,2.1-0.5
				c11.1-19.1,19.8-39.5,29-59.6C112.9,110.9,110.3,109.4,109.5,111.2L109.5,111.2z"/>
		</g>
	</g>
	<circle class="st3" cx="141.7" cy="141.7" r="97.7"/>
</g>
<g>
	<rect x="29.7" y="107" class="st4" width="224.2" height="69.5"/>
	<text transform="matrix(1 0 0 1 29.6499 170.489)" class="st5 st6 st7">yeeda.</text>
</g>
<rect x="76.8" y="185" class="st8" width="194" height="8.8"/>
</svg>
